<?xml version="1.0" encoding="UTF-8"?>
<svg id="Layer_2" data-name="Layer 2"
  xmlns="http://www.w3.org/2000/svg" viewBox="0 0 317.89 108.99" preserveAspectRatio="xMinYMin meet">
  <g id="Layer_1-2" data-name="Layer 1">
    <g>
      <path d="m37.27,77.77h7.09c.18,0,.35-.1.43-.26l6.99-11.72,6.89,11.74c.09.15.24.24.42.24h7.72c.37,0,.6-.41.41-.73l-11.39-17.7c-.09-.14-.09-.32-.02-.46l4.75-8.36c.16-.32-.07-.69-.43-.69h-7.45c-.18,0-.34.1-.43.26l-8.26,16.31.96-38.4c0-.38-.24-.53-.48-.48-.14.03-7.19,1.43-7.19,1.43-.26,0-.48.21-.48.48v47.86c0,.26.21.48.48.48Z"/>
      <path d="m85.67,77.77h5.28c.53,0,.96-.43.96-.96l.48-26.03c0-.53-.43-.96-.96-.96h-6.24c-.53,0-.96.43-.96.96l.48,26.03c0,.53.43.96.96.96Z"/>
      <path d="m111.12,77.77h26.11c.73,0,1.19-.79.83-1.43l-2.12-4.22c-.17-.3-.49-.48-.83-.48l-12.73-.48,14.94-19.83c.45-.63,0-1.51-.78-1.51h-23.72c-.73,0-1.19.79-.83,1.43l2.12,3.74c.17.3.49.48.83.48l10.82.48-15.42,20.31c-.45.63,0,1.51.78,1.51Z"/>
      <path d="m166.14,77.77c8.17,0,14.81-6.27,14.81-13.97s-6.64-13.97-14.81-13.97-14.81,6.27-14.81,13.97,6.64,13.97,14.81,13.97Zm0-20.98c4.1,0,7.43,3.15,7.43,7.01s-3.33,7.01-7.43,7.01-7.43-3.15-7.43-7.01,3.33-7.01,7.43-7.01Z"/>
      <path d="m314.78,0H3.11C1.39,0,0,1.39,0,3.11v102.78c0,1.71,1.39,3.11,3.11,3.11h311.68c1.71,0,3.11-1.39,3.11-3.11V3.11c0-1.71-1.39-3.11-3.11-3.11Zm-105.41,103.25H5.74V5.74h203.64v97.52Zm81.01-30.24h-9.15c-.17,0-.32-.13-.42-.24l-12.34-13.97-.41,22.79c0,.26-.11.5-.28.68s-.42.32-.68.28c-1.12-.18-4.3-1.33-4.3-1.33-.25-.08-.52-.21-.7-.38s-.28-.41-.28-.68l-.41-21.36-12.34,13.97c-.12.14-.24.24-.42.24h-9.15c-.37,0-.6-.41-.41-.73l17.79-18.28h-9.87c-.17,0-.34-.05-.48-.13-.14-.08-.27-.2-.35-.35l-1.5-2.64-1.5-2.64c-.18-.32-.16-.68,0-.95s.46-.48.83-.48l17.19.79-.33-17.69c0-.26.11-.5.28-.68s.38-.25.71-.33c0,0,5.62-1.38,6.21-1.38.26,0,.5.11.68.28s.28.41.28.68l-.34,19.13,17.2-.79c.37,0,.66.2.83.48s.19.63,0,.95l-1.5,2.64-1.5,2.64c-.08.15-.21.27-.35.35-.14.08-.31.13-.48.13h-9.88l17.79,18.28c.19.32-.03.73-.41.73Z"/>
    </g>
  </g>
</svg>