<?xml version="1.0" encoding="UTF-8"?>
<svg id="Layer_2" data-name="Layer 2" xmlns="http://www.w3.org/2000/svg" viewBox="0 0 114.72 108.99">
  <g id="Layer_1-2" data-name="Layer 1">
    <path d="m111.61,0H3.11C1.39,0,0,1.39,0,3.11v102.78c0,1.71,1.39,3.11,3.11,3.11h108.51c1.71,0,3.11-1.39,3.11-3.11V3.11c0-1.71-1.39-3.11-3.11-3.11Zm-24.85,74.78h-10.25c-.19,0-.36-.15-.47-.27l-13.82-15.65-.46,25.53c0,.3-.12.56-.31.76-.19.19-.47.36-.76.31-1.26-.2-4.82-1.49-4.82-1.49-.28-.09-.59-.23-.78-.43-.19-.19-.31-.46-.31-.76l-.46-23.93-13.83,15.65c-.14.16-.27.27-.47.27h-10.25c-.42,0-.68-.46-.46-.82l19.92-20.48h-11.06c-.19,0-.38-.05-.54-.15s-.3-.23-.39-.4l-1.68-2.96-1.68-2.96c-.2-.36-.18-.76,0-1.07.18-.31.52-.53.93-.53l19.26.88-.37-19.82c0-.3.12-.56.31-.76.19-.19.43-.28.79-.37,0,0,6.29-1.55,6.95-1.55.3,0,.56.12.76.31.19.19.31.46.31.76l-.38,21.43,19.27-.88c.41,0,.74.22.93.53.18.31.21.71,0,1.07l-1.68,2.96-1.68,2.96c-.1.17-.23.3-.39.4-.16.09-.35.15-.54.15h-11.07l19.92,20.48c.22.36-.04.82-.46.82Z"/>
  </g>
</svg>